<svg width="64" height="65" viewBox="0 0 64 65" fill="none" xmlns="http://www.w3.org/2000/svg">
  <path d="M62.792 29.6458L34.844 1.70782C34.4613 1.32413 34.0067 1.01971 33.5061 0.812C33.0056 0.604292 32.469 0.497375 31.927 0.497375C31.3851 0.497375 30.8485 0.604292 30.3479 0.812C29.8474 1.01971 29.3927 1.32413 29.01 1.70782L23.218 7.50982L30.582 14.8638C31.4471 14.5704 32.377 14.5252 33.2664 14.7334C34.1558 14.9416 34.9691 15.3949 35.614 16.0418C36.99 17.4178 37.374 19.3958 36.792 21.1038L43.876 28.1978C44.7439 27.8956 45.6796 27.8447 46.5751 28.051C47.4707 28.2573 48.2898 28.7124 48.938 29.3638C50.866 31.2798 50.866 34.3838 48.938 36.3018C48.4834 36.7573 47.9435 37.1187 47.3491 37.3652C46.7547 37.6118 46.1175 37.7387 45.474 37.7387C44.8305 37.7387 44.1933 37.6118 43.5989 37.3652C43.0045 37.1187 42.4646 36.7573 42.01 36.3018C41.3274 35.6188 40.8606 34.7501 40.6679 33.8038C40.4752 32.8575 40.5649 31.8755 40.926 30.9798L34.29 24.3758V41.7818C34.758 42.0118 35.206 42.3238 35.592 42.7098C37.498 44.6378 37.498 47.7298 35.592 49.6478C34.668 50.5681 33.4171 51.0848 32.113 51.0848C30.8089 51.0848 29.558 50.5681 28.634 49.6478C28.0623 49.0759 27.6408 48.3715 27.407 47.5972C27.1733 46.823 27.1346 46.0031 27.2943 45.2103C27.4541 44.4175 27.8073 43.6765 28.3227 43.0532C28.838 42.4299 29.4994 41.9437 30.248 41.6378V24.0658C29.6509 23.8122 29.1068 23.4486 28.644 22.9938C27.9558 22.3074 27.488 21.4312 27.3006 20.4774C27.1132 19.5236 27.2147 18.5356 27.592 17.6398L20.362 10.3698L1.19602 29.5258C0.429833 30.3034 0.000335693 31.3512 0.000335693 32.4428C0.000335693 33.5345 0.429833 34.5823 1.19602 35.3598L29.144 63.2978C29.5267 63.6815 29.9814 63.9859 30.4819 64.1936C30.9825 64.4013 31.5191 64.5083 32.061 64.5083C32.603 64.5083 33.1396 64.4013 33.6401 64.1936C34.1407 63.9859 34.5953 63.6815 34.978 63.2978L62.79 35.4858C63.1737 35.1031 63.4781 34.6485 63.6858 34.1479C63.8936 33.6474 64.0005 33.1108 64.0005 32.5688C64.0005 32.0269 63.8936 31.4903 63.6858 30.9897C63.4781 30.4892 63.1737 30.0345 62.79 29.6518L62.792 29.6458Z" fill="#9E9E9E"/>
</svg>
