<svg width="64" height="65" viewBox="0 0 64 65" fill="none" xmlns="http://www.w3.org/2000/svg">
  <path d="M0 0.5H64V64.5H0V0.5ZM58.76 49.24C58.292 46.312 56.384 43.864 50.75 41.574C48.792 40.658 46.604 40.012 45.958 38.532C45.718 37.656 45.676 37.178 45.832 36.656C46.238 34.926 48.27 34.416 49.874 34.896C50.916 35.218 51.874 36.01 52.478 37.292C55.238 35.49 55.238 35.49 57.156 34.292C56.438 33.178 56.084 32.688 55.594 32.22C53.916 30.334 51.678 29.376 48.042 29.46L46.156 29.7C44.354 30.138 42.636 31.096 41.594 32.378C38.562 35.816 39.438 41.816 43.114 44.306C46.75 47.024 52.072 47.618 52.76 50.182C53.396 53.308 50.438 54.308 47.51 53.942C45.354 53.462 44.156 52.38 42.832 50.38L37.956 53.182C38.508 54.464 39.154 55.016 40.112 56.14C44.748 60.818 56.352 60.578 58.434 53.462C58.506 53.222 59.07 51.576 58.632 49.066L58.76 49.24ZM34.802 29.916H28.812C28.812 35.082 28.78 40.218 28.78 45.396C28.78 48.678 28.946 51.698 28.416 52.626C27.53 54.46 25.27 54.23 24.238 53.908C23.186 53.388 22.644 52.668 22.03 51.626C21.852 51.344 21.728 51.106 21.686 51.106L16.822 54.106C17.634 55.784 18.822 57.232 20.354 58.148C22.636 59.512 25.698 59.95 28.906 59.232C30.99 58.628 32.792 57.388 33.728 55.472C35.092 52.992 34.8 49.952 34.79 46.544C34.822 41.064 34.79 35.586 34.79 30.064L34.802 29.916Z" fill="#9E9E9E"/>
</svg>
