<svg width="60" height="65" viewBox="0 0 60 65" fill="none" xmlns="http://www.w3.org/2000/svg">
  <path d="M57.334 32.02C57.3318 30.1837 56.7215 28.3999 55.5984 26.9471C54.4753 25.4943 52.9026 24.4545 51.126 23.99L59.094 0.5H19.614L27.606 24.074C25.8816 24.5752 24.3659 25.6214 23.2858 27.0559C22.2056 28.4905 21.6191 30.2363 21.614 32.032C21.614 34.814 23 37.282 25.116 38.802C24.2689 40.0011 23.3019 41.1108 22.23 42.114C20.2567 43.9913 17.9497 45.483 15.428 46.512C13.198 45.01 12.242 42.354 13.106 39.992C22.168 37.168 20.168 23.814 10.69 23.774C8.48865 23.7756 6.37793 24.6508 4.82134 26.2074C3.26476 27.7639 2.38958 29.8747 2.38799 32.076C2.38799 34.338 3.30199 36.41 4.79399 37.898C4.65799 38.148 4.53199 38.42 4.39599 38.69C3.15799 41.252 1.74999 44.138 1.20999 47.378C0.137988 53.868 1.89799 59.076 6.14799 62.024C8.44542 63.6452 11.1901 64.5119 14.002 64.504C18.866 64.504 23.816 62.056 28.596 59.68C32.012 58.002 35.532 56.242 38.99 55.39C40.272 55.078 41.606 54.892 43.012 54.68C45.866 54.274 48.814 53.848 51.46 52.306C52.9734 51.4411 54.2789 50.2552 55.2848 48.8316C56.2906 47.408 56.9723 45.7814 57.282 44.066C57.7225 41.4529 57.3065 38.7674 56.096 36.41C56.898 35.128 57.336 33.64 57.336 32.024L57.334 32.02ZM53.72 32.02C53.7184 33.257 53.2263 34.4429 52.3516 35.3176C51.4769 36.1923 50.291 36.6844 49.054 36.686C44.636 36.676 42.7 31.104 46.166 28.352L46.176 28.334C46.334 28.22 46.502 28.104 46.656 27.998C46.656 27.998 46.688 27.998 46.688 27.98C46.76 27.938 46.832 27.886 46.906 27.844C46.928 27.844 46.938 27.834 46.956 27.834C47.03 27.792 47.124 27.762 47.218 27.72C47.312 27.678 47.404 27.648 47.48 27.606C47.498 27.606 47.51 27.596 47.53 27.596C47.604 27.574 47.688 27.534 47.76 27.524C47.77 27.524 47.814 27.502 47.834 27.502C47.928 27.48 48 27.46 48.092 27.448H48.102L48.384 27.386C48.402 27.386 48.434 27.386 48.456 27.364C48.528 27.364 48.602 27.342 48.686 27.342H48.768C48.862 27.342 48.954 27.332 49.07 27.332H49.31C49.384 27.332 49.446 27.332 49.518 27.342H49.55C49.696 27.364 49.852 27.384 49.998 27.428C51.0504 27.6512 51.9942 28.2292 52.6713 29.0651C53.3485 29.901 53.718 30.9442 53.718 32.02H53.72ZM24.782 4.21H53.928L47.24 23.938C46.958 23.992 46.688 24.084 46.406 24.178L39.366 9.824L32.302 24.086C32.0154 24.0007 31.7234 23.9345 31.428 23.888L24.782 4.21ZM38.032 30.406C37.6901 28.6958 36.814 27.1383 35.53 25.958L39.364 18.22L43.238 26.124C42.0532 27.2871 41.2444 28.7786 40.916 30.406H38.032ZM28.75 27.478C28.8359 27.4545 28.9235 27.4377 29.012 27.428H29.062C29.136 27.406 29.208 27.406 29.28 27.386H29.354C29.426 27.386 29.49 27.364 29.562 27.364H30.28C30.354 27.364 30.416 27.386 30.47 27.386C30.51 27.386 30.52 27.386 30.564 27.408C30.636 27.43 30.69 27.43 30.762 27.44C30.784 27.44 30.804 27.44 30.844 27.458L31.094 27.512H31.116C31.188 27.534 31.274 27.554 31.346 27.594C31.356 27.594 31.378 27.604 31.418 27.604C31.472 27.626 31.544 27.646 31.608 27.676C31.616 27.676 31.638 27.698 31.658 27.698C31.73 27.74 31.804 27.762 31.876 27.792H31.898C31.9849 27.824 32.0659 27.8699 32.138 27.928H32.16C32.232 27.96 32.304 28.01 32.378 28.054C32.396 28.054 32.396 28.076 32.418 28.076C32.492 28.108 32.544 28.17 32.616 28.202L32.638 28.224C32.856 28.39 33.064 28.576 33.276 28.766L33.284 28.776C34.118 29.65 34.578 30.806 34.566 32.002C34.368 38.024 25.43 38.024 25.232 32.002C25.222 29.868 26.68 28.002 28.752 27.482L28.75 27.478ZM10.51 27.342C11.7491 27.342 12.9374 27.8342 13.8136 28.7104C14.6898 29.5866 15.182 30.7749 15.182 32.014C15.182 33.2531 14.6898 34.4414 13.8136 35.3176C12.9374 36.1938 11.7491 36.686 10.51 36.686C7.93999 36.686 5.84399 34.592 5.84399 32.02C5.84399 29.448 7.93999 27.342 10.51 27.342ZM53.614 43.418C53.4009 44.6022 52.9307 45.7253 52.2364 46.708C51.5422 47.6908 50.6409 48.5094 49.596 49.106C47.574 50.272 45.084 50.648 42.482 51.01C41.0113 51.198 39.5508 51.459 38.106 51.792C34.252 52.742 30.544 54.584 26.948 56.366C22.356 58.648 18.022 60.792 14.002 60.792C11.9398 60.8051 9.92656 60.1636 8.25199 58.96C4.17799 56.146 4.37799 50.866 4.86599 47.97C5.30399 45.26 6.54399 42.73 7.72999 40.304C7.81599 40.158 7.86599 40.022 7.93999 39.878C8.34599 40.022 8.77199 40.136 9.21999 40.212C8.50999 44.138 10.51 48.202 14.406 50.202L15.104 50.564L15.864 50.294C19.104 49.136 22.114 47.272 24.76 44.774C26.2268 43.4089 27.5211 41.8695 28.614 40.19C30.6463 40.5018 32.7221 40.0494 34.4404 38.9202C36.1587 37.791 37.3977 36.0652 37.918 34.076H41.032C41.4924 35.8533 42.5301 37.4273 43.982 38.551C45.434 39.6746 47.218 40.2842 49.054 40.284C50.596 40.284 52.022 39.858 53.24 39.138C53.72 40.524 53.874 41.97 53.614 43.418Z" fill="#9E9E9E"/>
</svg>
