<svg width="65" height="65" viewBox="0 0 65 65" fill="none" xmlns="http://www.w3.org/2000/svg">
  <path d="M47.498 60.5098C47.26 60.6358 47.28 60.6758 47.508 60.5598C47.5783 60.5311 47.6427 60.4897 47.698 60.4378C47.698 60.3958 47.698 60.3958 47.498 60.5098ZM47.978 60.2498C47.864 60.3438 47.864 60.3438 48 60.2818C48.0503 60.2582 48.0962 60.2265 48.136 60.1878C48.136 60.1338 48.104 60.1458 47.978 60.2498ZM48.29 60.0618C48.176 60.1558 48.176 60.1558 48.312 60.0938C48.3625 60.0697 48.4085 60.0373 48.448 59.9978C48.448 59.9478 48.416 59.9578 48.29 60.0618ZM48.606 59.8758C48.492 59.9698 48.492 59.9698 48.624 59.9058C48.698 59.8658 48.76 59.8238 48.76 59.8118C48.76 59.7618 48.728 59.7718 48.606 59.8758ZM49.032 59.5938C48.814 59.7398 48.738 59.8338 48.938 59.7298C49.072 59.6478 49.3 59.4678 49.26 59.4678C49.174 59.4998 49.102 59.5538 49.03 59.5938H49.032ZM29.906 0.52178C29.76 0.53178 29.322 0.57178 28.938 0.60378C19.842 1.42778 11.332 6.32378 5.938 13.8658C2.95713 18.0023 1.01952 22.7976 0.29 27.8438C0.032 29.6038 0 30.1238 0 32.5098C0 34.8938 0.032 35.4058 0.29 37.1658C2.032 49.1878 10.584 59.2798 22.176 63.0198C24.262 63.6858 26.448 64.1458 28.938 64.4278C29.906 64.5318 34.092 64.5318 35.06 64.4278C39.364 63.9478 42.998 62.8858 46.594 61.0518C47.146 60.7718 47.25 60.6978 47.176 60.6358C45.4218 58.3169 43.6824 55.9869 41.958 53.6458L36.844 46.7398L30.438 37.2498C28.3072 34.0723 26.1544 30.9096 23.98 27.7618C23.958 27.7618 23.93 31.9798 23.918 37.1238C23.896 46.1338 23.896 46.4998 23.782 46.7078C23.6727 46.959 23.4768 47.1627 23.23 47.2818C23.032 47.3758 22.854 47.3958 21.908 47.3958H20.826L20.544 47.2198C20.3674 47.1065 20.2239 46.9485 20.128 46.7618L19.992 46.4798L20.002 33.9378L20.024 21.3958L20.222 21.1458C20.3485 20.9921 20.5041 20.865 20.68 20.7718C20.942 20.6458 21.046 20.6258 22.128 20.6258C23.398 20.6258 23.608 20.6758 23.942 21.0418C26.5371 24.9015 29.1098 28.7763 31.66 32.6658C35.818 38.9698 41.494 47.5718 44.284 51.7918L49.358 59.4698L49.608 59.3038C52.0465 57.6833 54.2563 55.7426 56.178 53.5338C60.2091 48.9199 62.8248 43.242 63.712 37.1798C63.97 35.4198 64.002 34.8978 64.002 32.5138C64.002 30.1278 63.97 29.6178 63.712 27.8578C61.97 15.8358 53.418 5.74378 41.826 2.00178C39.6596 1.31562 37.4297 0.848615 35.17 0.60778C34.564 0.54578 30.428 0.47178 29.908 0.52578L29.906 0.52178ZM43 19.8758C43.1488 19.9489 43.2815 20.0509 43.3904 20.1759C43.4992 20.3009 43.5821 20.4464 43.634 20.6038C43.688 20.7718 43.698 24.2498 43.688 32.0838L43.666 43.3318L41.688 40.2918L39.698 37.2498V29.0838C39.698 23.7898 39.72 20.8218 39.748 20.6758C39.8459 20.341 40.0705 20.0576 40.374 19.8858C40.622 19.7598 40.718 19.7498 41.708 19.7498C42.634 19.7498 42.792 19.7598 43 19.8758Z" fill="#9E9E9E"/>
</svg>
