<svg width="64" height="29" viewBox="0 0 64 29" fill="none" xmlns="http://www.w3.org/2000/svg">
  <path d="M43.2373 0.531982L43.0373 1.57465C42.728 3.55065 42.84 4.11598 43.688 4.84931L44.5067 5.52665L43.6587 9.30798C43.152 11.564 42.5307 13.4546 42.136 14.076C41.7973 14.612 41.4027 15.4013 41.3173 15.8253C41.176 16.332 40.696 16.8413 39.9627 17.292C39.3147 17.66 38.0427 18.6467 37.1413 19.4387C36.4213 20.0867 35.9253 20.484 35.656 20.6546L34.776 21.3507C34.5497 21.6862 34.3795 22.0564 34.272 22.4466C34.2107 22.732 34.2453 22.9213 34.336 23.06C34.424 23.1933 34.576 23.2867 34.784 23.3453C35.0302 23.403 35.2837 23.4237 35.536 23.4066C36.1068 23.3676 36.6719 23.2675 37.2213 23.108C37.408 23.0573 37.5547 23.0093 37.6827 22.9667C37.88 22.724 38.336 22.2653 39.144 21.468C41.288 19.3533 42.1067 18.196 41.2613 18.508C40.9493 18.62 41.0907 18.3373 41.6267 17.772C42.7573 16.6707 43.4053 15.0066 44.76 9.78798C45.832 5.66798 45.832 5.60932 46.6213 5.60932C46.992 5.60932 48.04 5.67331 48.04 5.67331V0.531982H45.6347H43.2373ZM53.4747 8.97198C53.304 8.97198 53.0213 9.22798 52.8533 9.51065C52.544 10.0173 52.9093 10.3266 57.5653 13.2333C60.3307 14.9853 62.56 16.4786 62.504 16.5933C62.448 16.676 60.1893 18.1453 57.4827 19.8386C52.5707 22.884 52.544 22.9133 52.9947 23.5346C53.56 24.268 52.9947 24.5213 59.3707 20.5426L64 17.58V15.3506L58.8347 12.1613C56.0427 10.412 53.616 9.00132 53.4747 8.97198ZM10.5813 9.28398C10.44 9.28398 8.01333 10.724 5.22133 12.444L0 15.6333V17.8626L5.192 21.108C8.072 22.884 10.4987 24.3533 10.6107 24.3533C10.7227 24.3533 10.9493 24.0973 11.176 23.788C11.5147 23.252 11.2293 23.0253 6.46133 20.0066C1.92 17.156 1.44 16.7613 1.89333 16.452C2.176 16.2547 4.32 14.9266 6.63467 13.4893C11.912 10.244 11.6293 10.468 11.2053 9.79065C11.0373 9.51065 10.752 9.25731 10.584 9.28398H10.5813ZM33.7387 9.34532C32.96 9.33998 31.2853 10.5266 26.272 14.62C26.056 15.1346 26.0373 15.4893 26.136 15.7186C26.2 15.876 26.3173 15.9853 26.48 16.0653C26.64 16.1453 26.848 16.1933 27.0773 16.212C27.5333 16.252 28.072 16.18 28.5067 16.0946L28.8 16.028C28.9004 15.8933 29.0322 15.7853 29.184 15.7133C29.4933 15.5426 30.792 14.3586 32.0907 13.0893C34.376 10.7746 34.912 9.72931 33.9813 9.39065C33.905 9.36027 33.8208 9.34488 33.7387 9.34532ZM39.5947 10.9533C38.9093 10.972 37.6747 11.7666 35.56 13.4546C34.4987 14.316 33.8267 14.78 33.4667 14.876L32.0693 15.98C31.544 16.94 31.4667 17.5346 31.6053 17.8626C31.64 17.9436 31.6904 18.0168 31.7536 18.0781C31.8168 18.1395 31.8914 18.1877 31.9733 18.22C32.1771 18.3004 32.3943 18.3412 32.6133 18.34C33.1367 18.3344 33.657 18.2582 34.16 18.1133C34.4221 18.043 34.6811 17.9611 34.936 17.868L35.0133 17.836L35.1547 17.7613C35.4213 17.4173 36.0347 16.7693 36.8027 16.0226C39.2293 13.6813 40.4693 12.0173 40.216 11.396C40.1013 11.0947 39.904 10.9426 39.5947 10.9533ZM33.1307 13.8333C32.9333 13.8546 32.4907 14.196 31.6933 14.8946C30.5413 15.9133 29.2853 16.5 28.8507 16.2387C28.7497 16.2615 28.6483 16.2828 28.5467 16.3026C28.104 16.3906 27.552 16.4626 27.0587 16.4226C26.8262 16.4086 26.5984 16.3516 26.3867 16.2546C26.187 16.1633 26.0276 16.0021 25.9387 15.8013C25.84 15.5613 25.84 15.2626 25.952 14.8813L24.2187 16.3053L20.296 19.5506V24.812L33.1493 14.6866C33.1468 14.5758 33.1612 14.4652 33.192 14.3586C33.2907 14.0013 33.2853 13.82 33.1307 13.836V13.8333ZM38.6613 15.5373C38.4667 15.5373 38.1413 15.812 37.6213 16.364C36.9147 17.1187 35.8027 17.8493 35.2133 17.9987L35.1227 18.0466C35.0259 18.0866 34.9281 18.1239 34.8293 18.1586C34.6693 18.212 34.4613 18.276 34.2213 18.34C33.7413 18.4706 33.144 18.5907 32.6107 18.5773C32.3592 18.577 32.1102 18.5281 31.8773 18.4333C31.6578 18.3428 31.4819 18.1708 31.3867 17.9533C31.232 17.5826 31.2933 17.0626 31.632 16.324L20.2933 25.2547V28.468H25.2747L35.84 20.1693C36.1147 19.8653 36.528 19.4493 37.0853 18.9293C38.5787 17.5453 38.9173 17.068 38.9173 16.3613C38.9173 15.812 38.856 15.5346 38.6613 15.5346V15.5373ZM41.176 20.7373L40.272 21.6386C39.7653 22.1186 38.8613 22.7106 38.2427 22.964L38.12 23.0173L38.112 23.0307L38.0853 23.0573C38.0613 23.076 38.0507 23.0787 38.032 23.0867C37.785 23.1801 37.5341 23.2629 37.28 23.3346C36.715 23.4991 36.1338 23.6019 35.5467 23.6413C35.2691 23.6591 34.9904 23.6348 34.72 23.5693C34.4854 23.5177 34.2782 23.3808 34.1387 23.1853C34.0107 22.988 33.9733 22.724 34.0453 22.3986C34.1026 22.167 34.1877 21.9432 34.2987 21.732L25.7733 28.468H37.112L38.4667 26.916C40.328 24.7453 41.176 23.1933 41.176 21.8653V20.7373Z" fill="#9E9E9E"/>
</svg>
