<svg width="64" height="65" viewBox="0 0 64 65" fill="none" xmlns="http://www.w3.org/2000/svg">
  <path d="M0 32.5V64.5H64V0.5H0V32.5ZM51.572 29.948C53.1063 30.3092 54.5007 31.1132 55.582 32.26C56.166 32.884 57.04 34.03 57.114 34.312C57.134 34.396 54.354 36.26 52.666 37.302C52.604 37.344 52.354 37.084 52.082 36.676C51.26 35.478 50.394 34.958 49.072 34.864C47.134 34.738 45.884 35.75 45.894 37.448C45.8838 37.8635 45.9766 38.275 46.164 38.646C46.592 39.532 47.394 40.062 49.872 41.136C54.456 43.104 56.414 44.406 57.632 46.25C58.996 48.312 59.298 51.604 58.382 54.062C57.362 56.718 54.84 58.53 51.298 59.124C50.204 59.322 47.6 59.29 46.422 59.072C43.85 58.614 41.412 57.342 39.912 55.676C39.318 55.03 38.172 53.332 38.246 53.218C38.278 53.176 38.538 53.01 38.83 52.842L41.206 51.466L43.05 50.394L43.436 50.966C43.978 51.788 45.154 52.914 45.864 53.288C47.906 54.372 50.708 54.216 52.094 52.976C52.656 52.508 52.97 51.788 52.928 51.06C52.928 50.32 52.834 49.988 52.448 49.434C51.948 48.726 50.938 48.122 48.052 46.872C44.75 45.444 43.322 44.57 42.032 43.164C41.2199 42.2386 40.6193 41.1472 40.272 39.966C40.032 39.06 39.97 36.788 40.158 35.882C40.836 32.684 43.252 30.466 46.72 29.81C47.846 29.592 50.47 29.674 51.574 29.946L51.572 29.948ZM36.552 32.626L36.572 35.24H28.238V58.918H22.342V35.24H14.02V32.678C14.02 31.25 14.052 30.064 14.092 30.032C14.124 29.99 19.186 29.97 25.332 29.98L36.52 30.012L36.552 32.626Z" fill="#9E9E9E"/>
</svg>
