<svg width="64" height="57" viewBox="0 0 64 57" fill="none" xmlns="http://www.w3.org/2000/svg">
  <path d="M32 22.792C28.854 22.792 26.292 25.354 26.292 28.5C26.292 31.646 28.854 34.208 32 34.208C35.146 34.208 37.708 31.646 37.708 28.5C37.708 25.354 35.146 22.792 32 22.792ZM16.02 39.844L14.76 39.532C5.384 37.156 0 33.136 0 28.49C0 23.844 5.386 19.824 14.76 17.448L16.02 17.136L16.374 18.386C17.3251 21.66 18.5412 24.8512 20.01 27.928L20.28 28.49L20.01 29.062C18.5381 32.1375 17.322 35.3289 16.374 38.604L16.02 39.844ZM14.178 20.364C7.052 22.364 2.678 25.436 2.678 28.49C2.678 31.544 7.054 34.604 14.178 36.616C15.0513 33.8413 16.1056 31.1268 17.334 28.49C16.1038 25.8539 15.0495 23.1393 14.178 20.364ZM47.98 39.844L47.626 38.594C46.6765 35.3227 45.4604 32.1346 43.99 29.062L43.72 28.49L43.99 27.918C45.4619 24.8426 46.678 21.6511 47.626 18.376L47.98 17.136L49.24 17.448C58.616 19.824 64 23.844 64 28.49C64 33.136 58.614 37.156 49.24 39.532L47.98 39.844ZM46.666 28.49C47.8985 31.1251 48.9529 33.8398 49.822 36.616C56.958 34.606 61.322 31.544 61.322 28.49C61.322 25.436 56.946 22.376 49.822 20.364C48.9466 23.138 47.8924 25.8524 46.666 28.49ZM14.156 20.354L13.802 19.104C11.166 9.81201 11.968 3.14601 16 0.822007C19.958 -1.45999 26.302 1.23801 32.958 8.07201L33.864 9.00001L32.958 9.92801C30.5943 12.3873 28.4345 15.0346 26.5 17.844L26.136 18.354L25.51 18.406C22.107 18.6746 18.7313 19.2184 15.416 20.032L14.156 20.354ZM19.218 2.67801C18.5 2.67801 17.864 2.82401 17.332 3.13601C14.686 4.66801 14.218 9.98001 16.04 17.146C18.8829 16.5101 21.7644 16.0611 24.666 15.802C26.3365 13.4228 28.1632 11.1571 30.134 9.02001C25.978 4.96801 22.04 2.67801 19.218 2.67801ZM44.792 56.968C44.782 56.968 44.782 56.968 44.792 56.968C40.99 56.968 36.104 54.114 31.042 48.906L30.136 47.978L31.042 47.05C33.4057 44.5908 35.5655 41.9434 37.5 39.134L37.854 38.624L38.48 38.562C41.8874 38.3024 45.2672 37.7585 48.584 36.936L49.844 36.624L50.198 37.874C52.834 47.166 52.032 53.822 48 56.144C47.0252 56.7043 45.9161 56.9904 44.792 56.968ZM33.864 47.958C38.02 52.01 41.958 54.302 44.78 54.302H44.79C45.498 54.302 46.134 54.146 46.666 53.844C49.312 52.312 49.792 47 47.958 39.834C45.1156 40.4706 42.2339 40.9163 39.332 41.168C37.6616 43.5505 35.8349 45.8175 33.864 47.958ZM49.844 20.354L48.584 20.032C45.2648 19.2211 41.886 18.6774 38.48 18.406L37.854 18.354L37.5 17.844C35.5655 15.0346 33.4057 12.3873 31.042 9.92801L30.136 9.00001L31.042 8.07201C37.698 1.23801 44.042 -1.45999 48 0.822007C52.032 3.14401 52.834 9.81201 50.198 19.104L49.844 20.354ZM39.334 15.802C42.2357 16.0604 45.1172 16.5094 47.96 17.146C49.794 9.98001 49.314 4.66601 46.668 3.13601C44.032 1.61601 39.074 3.94801 33.866 9.02201C35.8315 11.1637 37.6579 13.429 39.334 15.804V15.802ZM19.218 56.968C18.092 56.988 16.978 56.708 16 56.146C11.968 53.824 11.166 47.166 13.802 37.876L14.156 36.626L15.416 36.938C18.5 37.72 21.896 38.26 25.51 38.564L26.136 38.626L26.49 39.136C28.4245 41.9454 30.5843 44.5928 32.948 47.052L33.854 47.98L32.948 48.908C27.896 54.116 23.01 56.97 19.218 56.97V56.968ZM16.042 39.834C14.208 47 14.688 52.314 17.334 53.844C19.97 55.344 24.918 53.032 30.136 47.958C28.1651 45.8175 26.3384 43.5485 24.668 41.166C21.766 40.915 18.8842 40.4713 16.042 39.834ZM32 41.51C29.802 41.51 27.552 41.416 25.292 41.228L24.666 41.176L24.302 40.656C23.0254 38.8218 21.8264 36.9348 20.708 35C19.5873 33.0652 18.5484 31.0841 17.594 29.062L17.324 28.49L17.594 27.918C19.5061 23.8748 21.7497 19.9968 24.302 16.324L24.666 15.804L25.292 15.752C29.7561 15.376 34.2439 15.376 38.708 15.752L39.334 15.804L39.698 16.324C42.2536 19.9947 44.4974 23.873 46.406 27.918L46.676 28.49L46.406 29.062C44.5012 33.1091 42.2572 36.9876 39.698 40.656L39.334 41.176L38.708 41.228C36.4769 41.4147 34.2389 41.5088 32 41.51ZM26.146 38.614C30.084 38.916 33.916 38.916 37.864 38.614C40.0658 35.3898 42.0226 32.005 43.718 28.488C42.0298 24.9652 40.0692 21.5796 37.854 18.362C33.9572 18.06 30.0428 18.06 26.146 18.362C23.9292 21.5786 21.9685 24.9644 20.282 28.488C21.9778 32.0067 23.9381 35.3918 26.146 38.614Z" fill="#9E9E9E"/>
</svg>
