<svg width="64" height="65" viewBox="0 0 64 65" fill="none" xmlns="http://www.w3.org/2000/svg">
  <path d="M32 0.5C49.678 0.5 64 14.822 64 32.5C64 50.178 49.678 64.5 32 64.5C14.322 64.5 0 50.178 0 32.5C0 14.822 14.322 0.5 32 0.5ZM25.634 43.156C26.104 44.886 26.052 46.49 25.572 47.938L25.404 48.418C25.342 48.584 25.26 48.74 25.196 48.888C24.811 49.6778 24.3131 50.4075 23.718 51.054C21.852 53.076 19.26 53.846 18.144 53.2C16.936 52.502 17.538 49.638 19.696 47.354C22.018 44.906 25.352 43.332 25.352 43.332V43.324L25.634 43.156ZM52.072 14.198C50.624 8.51 41.198 6.646 32.28 9.812C26.968 11.698 21.23 14.658 17.094 18.522C12.176 23.114 11.396 27.114 11.72 28.78C12.864 34.676 20.938 38.542 24.262 41.396V41.418C23.28 41.896 16.116 45.49 14.438 49.22C12.636 53.134 14.72 55.938 16.072 56.292C20.272 57.458 24.594 55.332 26.918 51.894C29.158 48.532 28.958 44.22 27.99 42.094C29.312 41.74 30.876 41.572 32.876 41.812C38.482 42.458 39.596 45.98 39.356 47.418C39.116 48.856 37.958 49.698 37.554 49.938C37.16 50.178 37.034 50.25 37.074 50.418C37.116 50.658 37.314 50.658 37.636 50.616C38.074 50.544 40.554 49.418 40.678 46.698C40.792 43.25 37.51 39.418 31.678 39.49C29.272 39.544 27.75 39.74 26.678 40.178C26.6001 40.0691 26.5049 39.9739 26.396 39.896C22.794 36.022 16.116 33.304 16.396 28.136C16.482 26.262 17.158 21.304 29.198 15.304C39.072 10.376 46.958 11.742 48.312 14.742C50.272 19.022 44.114 26.982 33.834 28.136C29.916 28.574 27.874 27.064 27.354 26.502C26.792 25.896 26.72 25.856 26.508 25.982C26.196 26.136 26.394 26.66 26.508 26.982C26.83 27.782 28.07 29.18 30.238 29.896C32.112 30.502 36.718 30.856 42.238 28.698C48.436 26.304 53.27 19.626 51.872 14.02L52.072 14.198Z" fill="#9E9E9E"/>
</svg>
