<svg width="65" height="39" viewBox="0 0 65 39" fill="none" xmlns="http://www.w3.org/2000/svg">
  <path d="M32.0027 0.299988C23.4694 0.299988 18.136 4.56665 16.0027 13.1C19.2027 8.83332 22.936 7.23332 27.2027 8.29999C29.6374 8.90799 31.376 10.6733 33.304 12.6307C36.4427 15.8147 40.072 19.5 48.0027 19.5C56.536 19.5 61.8694 15.2333 64.0027 6.69999C60.8027 10.9667 57.0694 12.5667 52.8027 11.5C50.368 10.892 48.6294 9.12665 46.7014 7.16932C43.5654 3.98532 39.936 0.299988 32.0027 0.299988ZM16.0027 19.5C7.46935 19.5 2.13602 23.7667 0.00268555 32.3C3.20269 28.0333 6.93602 26.4333 11.2027 27.5C13.6374 28.108 15.376 29.8733 17.304 31.8307C20.4427 35.0147 24.072 38.7 32.0027 38.7C40.536 38.7 45.8694 34.4333 48.0027 25.9C44.8027 30.1667 41.0694 31.7667 36.8027 30.7C34.368 30.092 32.6294 28.3267 30.7014 26.3693C27.5654 23.1853 23.936 19.5 16.0027 19.5Z" fill="#9E9E9E"/>
</svg>
